<?xml version="1.0" standalone="no"?>
<!DOCTYPE svg PUBLIC "-//W3C//DTD SVG 20010904//EN"
 "http://www.w3.org/TR/2001/REC-SVG-20010904/DTD/svg10.dtd">
<svg version="1.0" xmlns="http://www.w3.org/2000/svg"
 width="210.000000pt" height="210.000000pt" viewBox="0 0 210.000000 210.000000"
 preserveAspectRatio="xMidYMid meet">
<metadata>
Created by potrace 1.14, written by Peter Selinger 2001-2017
</metadata>
<g transform="translate(0.000000,210.000000) scale(0.100000,-0.100000)"
fill="#000000" stroke="none">
<path d="M565 1472 c-62 -34 -142 -114 -178 -181 -31 -57 -58 -167 -56 -233 4
-96 62 -193 142 -235 43 -22 151 -23 195 -1 24 13 32 13 32 3 0 -29 54 -53 77
-33 17 13 17 12 -6 -47 -25 -66 -32 -120 -17 -140 18 -25 41 -9 67 48 14 30
50 78 87 115 63 62 63 63 80 42 21 -26 67 -32 110 -14 32 13 182 114 210 141
7 7 17 13 22 13 5 0 15 6 22 13 24 23 149 98 215 129 39 18 84 31 112 31 45 2
46 1 43 -25 -3 -23 1 -28 17 -28 12 0 21 6 22 13 0 6 3 24 5 39 3 19 -2 31
-18 42 -68 48 -212 -12 -478 -201 -151 -107 -180 -126 -180 -117 0 4 6 15 14
23 8 9 17 28 21 43 5 21 2 30 -18 42 -30 21 -59 11 -109 -36 -120 -112 -150
-139 -155 -134 -3 2 9 34 26 69 37 77 41 112 11 104 -11 -3 -22 -1 -25 3 -11
17 -72 -3 -120 -40 -50 -38 -122 -70 -160 -70 -86 0 -168 70 -180 155 -2 11
-5 32 -8 46 -8 41 18 159 47 213 48 91 140 164 231 184 115 25 251 -24 320
-116 42 -54 58 -106 59 -190 1 -48 5 -66 18 -73 22 -12 32 17 30 96 -2 127
-75 240 -195 302 -47 25 -63 28 -167 29 -107 2 -118 0 -165 -24z m227 -605
c-35 -35 -42 -39 -42 -21 0 21 33 58 60 66 29 10 24 -3 -18 -45z m259 10 c-18
-18 -31 -25 -29 -17 4 18 50 61 57 54 3 -2 -10 -19 -28 -37z m-211 -117 c0 -5
-2 -10 -4 -10 -3 0 -8 5 -11 10 -3 6 -1 10 4 10 6 0 11 -4 11 -10z"/>
</g>
</svg>
